<svg width="27" height="27" viewBox="0 0 27 27" fill="none" xmlns="http://www.w3.org/2000/svg">
<path d="M14.49 18.4804C14.49 18.7589 14.3794 19.0259 14.1825 19.2228C13.9856 19.4198 13.7185 19.5304 13.44 19.5304C13.1615 19.5304 12.8945 19.4198 12.6976 19.2228C12.5006 19.0259 12.39 18.7589 12.39 18.4804C12.39 18.2019 12.5006 17.9348 12.6976 17.7379C12.8945 17.541 13.1615 17.4304 13.44 17.4304C13.7185 17.4304 13.9856 17.541 14.1825 17.7379C14.3794 17.9348 14.49 18.2019 14.49 18.4804ZM13.44 7.56038C13.2172 7.56038 13.0036 7.64888 12.8461 7.80641C12.6885 7.96394 12.6 8.1776 12.6 8.40038V15.1204C12.6 15.3432 12.6885 15.5568 12.8461 15.7144C13.0036 15.8719 13.2172 15.9604 13.44 15.9604C13.6628 15.9604 13.8765 15.8719 14.034 15.7144C14.1915 15.5568 14.28 15.3432 14.28 15.1204V8.40038C14.28 8.1776 14.1915 7.96394 14.034 7.80641C13.8765 7.64888 13.6628 7.56038 13.44 7.56038ZM10.8663 3.19994C11.9851 1.17554 14.8949 1.17554 16.0138 3.19994L24.8279 19.1591C25.9107 21.118 24.4927 23.5204 22.255 23.5204H4.6259C2.3873 23.5204 0.970223 21.118 2.05214 19.1591L10.8663 3.19994ZM14.5429 4.01222C14.434 3.81508 14.2743 3.65073 14.0803 3.53627C13.8863 3.42182 13.6652 3.36146 13.44 3.36146C13.2148 3.36146 12.9937 3.42182 12.7997 3.53627C12.6058 3.65073 12.446 3.81508 12.3371 4.01222L3.52298 19.9714C3.41707 20.1632 3.36302 20.3793 3.36616 20.5984C3.3693 20.8175 3.42952 21.032 3.54089 21.2207C3.65225 21.4095 3.8109 21.5659 4.00118 21.6745C4.19145 21.7832 4.40678 21.8404 4.6259 21.8404H22.255C22.4741 21.8404 22.6894 21.7832 22.8797 21.6745C23.07 21.5659 23.2286 21.4095 23.34 21.2207C23.4514 21.032 23.5116 20.8175 23.5147 20.5984C23.5179 20.3793 23.4638 20.1632 23.3579 19.9714L14.5429 4.01222Z" fill="#021B41"/>
</svg>
