<svg width="26" height="22" viewBox="0 0 26 22" fill="none" xmlns="http://www.w3.org/2000/svg">
<path d="M1.32031 10.9998C1.32031 6.28844 1.32031 3.93214 2.67998 2.46914C4.03848 1.00488 6.22647 1.00488 10.6013 1.00488H15.2418C19.6166 1.00488 21.8046 1.00488 23.1631 2.46914C24.5228 3.93214 24.5228 6.28844 24.5228 10.9998C24.5228 15.7111 24.5228 18.0674 23.1631 19.5304C21.8046 20.9947 19.6166 20.9947 15.2418 20.9947H10.6013C6.22647 20.9947 4.03848 20.9947 2.67998 19.5304C1.32031 18.0674 1.32031 15.7111 1.32031 10.9998Z" stroke="#ADADAD" stroke-width="1.60632"/>
<path opacity="0.5" d="M10.6013 15.9972H5.9608M15.2418 15.9972H13.5016M1.32031 8.50098H24.5228" stroke="#ADADAD" stroke-width="1.60632" stroke-linecap="round"/>
</svg>
