<svg width="20" height="20" viewBox="0 0 20 20" fill="none" xmlns="http://www.w3.org/2000/svg">
<path d="M5 9.16699C5 6.81033 5 5.63116 5.7325 4.89949C6.46417 4.16699 7.64333 4.16699 10 4.16699H12.5C14.8567 4.16699 16.0358 4.16699 16.7675 4.89949C17.5 5.63116 17.5 6.81033 17.5 9.16699V13.3337C17.5 15.6903 17.5 16.8695 16.7675 17.6012C16.0358 18.3337 14.8567 18.3337 12.5 18.3337H10C7.64333 18.3337 6.46417 18.3337 5.7325 17.6012C5 16.8695 5 15.6903 5 13.3337V9.16699Z" stroke="#021B41" stroke-width="1.5"/>
<path opacity="0.5" d="M5 15.8337C4.33696 15.8337 3.70107 15.5703 3.23223 15.1014C2.76339 14.6326 2.5 13.9967 2.5 13.3337V8.33366C2.5 5.19116 2.5 3.61949 3.47667 2.64366C4.4525 1.66699 6.02417 1.66699 9.16667 1.66699H12.5C13.163 1.66699 13.7989 1.93038 14.2678 2.39923C14.7366 2.86807 15 3.50395 15 4.16699" stroke="#021B41" stroke-width="1.5"/>
</svg>
