<svg width="26" height="22" viewBox="0 0 26 22" fill="none" xmlns="http://www.w3.org/2000/svg">
<path d="M5.96069 6.00195H10.6012" stroke="#ADADAD" stroke-width="1.60632" stroke-linecap="round" stroke-linejoin="round"/>
<path d="M23.1689 7.25195H20.1502C18.0794 7.25195 16.4019 8.92985 16.4019 11C16.4019 13.0702 18.0806 14.7481 20.1491 14.7481H23.1689C23.2663 14.7481 23.3139 14.7481 23.3545 14.7456C23.9809 14.7044 24.4798 14.2059 24.5204 13.58C24.5227 13.54 24.5227 13.4913 24.5227 13.3951V8.60501C24.5227 8.50881 24.5227 8.46009 24.5204 8.42011C24.4786 7.79418 23.9809 7.29568 23.3545 7.25445C23.315 7.25195 23.2663 7.25195 23.1689 7.25195Z" stroke="#ADADAD" stroke-width="1.60632"/>
<path opacity="0.4" d="M23.322 7.2517C23.2316 4.91289 22.9415 3.47862 22.003 2.46914C20.6445 1.00488 18.4565 1.00488 14.0817 1.00488H10.6013C6.22647 1.00488 4.03848 1.00488 2.67998 2.46914C1.32031 3.93214 1.32031 6.28844 1.32031 10.9998C1.32031 15.7111 1.32031 18.0674 2.67998 19.5304C4.03848 20.9947 6.22647 20.9947 10.6013 20.9947H14.0817C18.4565 20.9947 20.6445 20.9947 22.003 19.5304C22.9415 18.521 23.2327 17.0867 23.322 14.7479" stroke="#ADADAD" stroke-width="1.60632"/>
<path opacity="0.5" d="M19.8718 11H19.8823" stroke="#ADADAD" stroke-width="2.14176" stroke-linecap="round" stroke-linejoin="round"/>
</svg>
