<svg width="27" height="27" viewBox="0 0 27 27" fill="none" xmlns="http://www.w3.org/2000/svg">
<path d="M8.37679 18.6233L5.42591 17.0213L6.08854 16.3587L8.70641 16.7524L13.3752 12.0837L5.09741 7.60618L5.93666 6.74443L16.1179 9.32743L19.4299 6.00643C19.6474 5.78893 19.9054 5.68018 20.2039 5.68018C20.5024 5.68018 20.76 5.78893 20.9768 6.00643C21.1935 6.22393 21.3023 6.48568 21.303 6.79168C21.3038 7.09768 21.195 7.35905 20.9768 7.5758L17.6929 10.9024L20.2545 21.0623L19.4153 21.9241L14.9153 13.6463L10.2893 18.2712L10.6617 20.9116L9.97766 21.5944L8.37679 18.6233Z" fill="#021B41"/>
</svg>
