<svg width="27" height="27" viewBox="0 0 27 27" fill="none" xmlns="http://www.w3.org/2000/svg">
<path d="M13.44 7.84035V5.60035C13.44 4.36835 12.432 3.36035 11.2 3.36035H4.47999C3.24799 3.36035 2.23999 4.36835 2.23999 5.60035V21.2804C2.23999 22.5124 3.24799 23.5204 4.47999 23.5204H22.4C23.632 23.5204 24.64 22.5124 24.64 21.2804V10.0804C24.64 8.84835 23.632 7.84035 22.4 7.84035H13.44ZM6.71999 21.2804H4.47999V19.0404H6.71999V21.2804ZM6.71999 16.8004H4.47999V14.5604H6.71999V16.8004ZM6.71999 12.3204H4.47999V10.0804H6.71999V12.3204ZM6.71999 7.84035H4.47999V5.60035H6.71999V7.84035ZM11.2 21.2804H8.95999V19.0404H11.2V21.2804ZM11.2 16.8004H8.95999V14.5604H11.2V16.8004ZM11.2 12.3204H8.95999V10.0804H11.2V12.3204ZM11.2 7.84035H8.95999V5.60035H11.2V7.84035ZM21.28 21.2804H13.44V19.0404H15.68V16.8004H13.44V14.5604H15.68V12.3204H13.44V10.0804H21.28C21.896 10.0804 22.4 10.5844 22.4 11.2004V20.1604C22.4 20.7764 21.896 21.2804 21.28 21.2804ZM20.16 12.3204H17.92V14.5604H20.16V12.3204ZM20.16 16.8004H17.92V19.0404H20.16V16.8004Z" fill="#021B41"/>
</svg>
