<svg width="87" height="30" viewBox="0 0 87 30" fill="none" xmlns="http://www.w3.org/2000/svg">
<path d="M16.4892 17.0951H5.74369V28.9072H0.686998V0.0287777H18.5434V4.69041H5.74369V12.552H16.4892V17.0951ZM34.4289 9.39156H39.2486V28.9072H34.7845L34.4289 26.2999C33.2438 28.1566 30.7154 29.4208 28.1081 29.4208C23.6045 29.4208 20.9576 26.3789 20.9576 21.5987V9.39156H25.7772V19.9C25.7772 23.6135 27.2389 25.1147 29.9253 25.1147C32.9672 25.1147 34.4289 23.337 34.4289 19.6235V9.39156ZM49.0462 28.9072H44.2266V9.39156H48.6907L49.0857 11.9199C50.3104 9.94463 52.6807 8.79898 55.3276 8.79898C60.2263 8.79898 62.7546 11.8409 62.7546 16.8976V28.9072H57.935V18.0432C57.935 14.7643 56.3152 13.1841 53.8264 13.1841C50.8635 13.1841 49.0462 15.2384 49.0462 18.3988V28.9072ZM87.0057 28.9072H66.2258V24.2061L80.4873 4.69041H66.5419V0.0287777H86.7687V4.53239L72.3887 24.2456H87.0057V28.9072Z" fill="white"/>
</svg>
