<svg width="16" height="18" viewBox="0 0 16 18" fill="none" xmlns="http://www.w3.org/2000/svg">
<path d="M0 7.88073C0 3.97975 3.16237 0.817383 7.06335 0.817383V9.22763V10.5745C7.06335 14.4755 3.90098 17.6379 0 17.6379V7.88073Z" fill="white"/>
<path d="M8.08813 4.65555C8.08813 2.53579 9.80654 0.817383 11.9263 0.817383C14.0461 0.817383 15.7645 2.53579 15.7645 4.65555V4.87715C15.7645 6.99691 14.0461 8.71532 11.9263 8.71532C9.80654 8.71532 8.08813 6.99691 8.08813 4.87715V4.65555Z" fill="#0158D9"/>
<path d="M8.08813 13.5784C8.08813 11.4586 9.80654 9.74023 11.9263 9.74023C14.0461 9.74023 15.7645 11.4586 15.7645 13.5784V13.8C15.7645 15.9198 14.0461 17.6382 11.9263 17.6382C9.80654 17.6382 8.08813 15.9198 8.08813 13.8V13.5784Z" fill="#C0DAFF"/>
</svg>
