<svg width="26" height="26" viewBox="0 0 26 26" fill="none" xmlns="http://www.w3.org/2000/svg">
<path d="M2.14185 13.147C2.14185 10.6958 2.14185 9.47067 2.6987 8.45548C3.25342 7.43921 4.26969 6.80953 6.30115 5.54803L8.44292 4.21906C10.59 2.88582 11.6641 2.21973 12.8507 2.21973C14.0372 2.21973 15.1102 2.88582 17.2584 4.21906L19.4002 5.54803C21.4317 6.80953 22.4479 7.43921 23.0037 8.45548C23.5595 9.47067 23.5595 10.6958 23.5595 13.1459V14.7758C23.5595 18.9523 23.5595 21.0416 22.3044 22.3395C21.0504 23.6374 19.0307 23.6374 14.9924 23.6374H10.7089C6.67061 23.6374 4.65092 23.6374 3.39692 22.3395C2.14185 21.0416 2.14185 18.9533 2.14185 14.7758V13.147Z" stroke="#ADADAD" stroke-width="1.60632"/>
<path d="M12.8506 16.1416V19.3542" stroke="#ADADAD" stroke-width="1.60632" stroke-linecap="round"/>
</svg>
