<svg width="28" height="34" viewBox="0 0 28 34" fill="none" xmlns="http://www.w3.org/2000/svg">
<path d="M3.90312 33.875C3.07062 33.875 2.35812 33.5781 1.76562 32.9844C1.17187 32.3919 0.875 31.6794 0.875 30.8469V14.4031C0.875 13.5706 1.17187 12.8581 1.76562 12.2656C2.35812 11.6719 3.07062 11.375 3.90312 11.375H6.5V7.625C6.5 5.53625 7.2275 3.76375 8.6825 2.3075C10.1375 0.851252 11.91 0.123752 14 0.125002C16.0887 0.125002 17.8613 0.852502 19.3175 2.3075C20.7738 3.7625 21.5012 5.535 21.5 7.625V11.375H24.0969C24.9294 11.375 25.6419 11.6719 26.2344 12.2656C26.8281 12.8581 27.125 13.5706 27.125 14.4031V30.8469C27.125 31.6794 26.8281 32.3919 26.2344 32.9844C25.6419 33.5781 24.9294 33.875 24.0969 33.875H3.90312ZM14 25.4375C14.7913 25.4375 15.4575 25.1663 15.9987 24.6238C16.5413 24.0825 16.8125 23.4163 16.8125 22.625C16.8125 21.8338 16.5413 21.1675 15.9987 20.6263C15.4575 20.0838 14.7913 19.8125 14 19.8125C13.2087 19.8125 12.5425 20.0838 12.0013 20.6263C11.4587 21.1675 11.1875 21.8338 11.1875 22.625C11.1875 23.4163 11.4587 24.0825 12.0013 24.6238C12.5425 25.1663 13.2087 25.4375 14 25.4375ZM8.375 11.375H19.625V7.625C19.625 6.0625 19.0781 4.73438 17.9844 3.64063C16.8906 2.54688 15.5625 2 14 2C12.4375 2 11.1094 2.54688 10.0156 3.64063C8.92188 4.73438 8.375 6.0625 8.375 7.625V11.375Z" fill="#021B41"/>
</svg>
