<svg width="49" height="40" viewBox="0 0 49 40" fill="none" xmlns="http://www.w3.org/2000/svg">
<path d="M17.8757 3.23828L31.1246 3.23828V27.0443H17.8757V3.23828Z" fill="#FF5F00"/>
<path d="M8.91727 39.0266V36.5031C8.91727 35.5355 8.3283 34.9048 7.31878 34.9048C6.81412 34.9048 6.2673 35.073 5.88871 35.6198C5.59442 35.1571 5.17386 34.9048 4.54293 34.9048C4.12219 34.9048 3.70183 35.0309 3.36519 35.4936V34.9889H2.48193V39.0266H3.36519V36.7974C3.36519 36.0826 3.74379 35.7459 4.33275 35.7459C4.92134 35.7459 5.21601 36.1245 5.21601 36.7974V39.0266H6.09927V36.7974C6.09927 36.0826 6.51963 35.7459 7.06645 35.7459C7.65542 35.7459 7.94971 36.1245 7.94971 36.7974V39.0266H8.91727ZM21.9977 34.9889H20.5679V33.7692H19.6846V34.9889H18.8855V35.7879H19.6844V37.6387C19.6844 38.5641 20.063 39.1107 21.0725 39.1107C21.4511 39.1107 21.8715 38.9847 22.1662 38.8164L21.9136 38.0593C21.6613 38.2275 21.367 38.2696 21.1566 38.2696C20.7361 38.2696 20.5679 38.0173 20.5679 37.5965V35.7879H21.9977V34.9889ZM29.4846 34.9046C28.9799 34.9046 28.6434 35.1571 28.4331 35.4936V34.9889H27.5498V39.0266H28.4331V36.7554C28.4331 36.0826 28.7274 35.704 29.2742 35.704C29.4424 35.704 29.6528 35.7461 29.821 35.7881L30.0733 34.947C29.9051 34.9048 29.6528 34.9048 29.4846 34.9048V34.9046ZM18.1704 35.3254C17.7497 35.0309 17.1609 34.9048 16.53 34.9048C15.5206 34.9048 14.8477 35.4095 14.8477 36.2086C14.8477 36.8817 15.3524 37.2601 16.2357 37.3864L16.6562 37.4285C17.1189 37.5124 17.3713 37.6387 17.3713 37.8491C17.3713 38.1434 17.0348 38.3537 16.4459 38.3537C15.8571 38.3537 15.3944 38.1434 15.0999 37.9332L14.6793 38.6061C15.142 38.9425 15.773 39.1107 16.4037 39.1107C17.5814 39.1107 18.2545 38.5641 18.2545 37.8069C18.2545 37.0919 17.7077 36.7133 16.8664 36.5872L16.4459 36.5451C16.0673 36.5029 15.773 36.419 15.773 36.1667C15.773 35.8722 16.0673 35.704 16.53 35.704C17.0348 35.704 17.5395 35.9141 17.7918 36.0404L18.1704 35.3254ZM41.64 34.9048C41.1351 34.9048 40.7987 35.1571 40.5883 35.4936V34.9889H39.7051V39.0266H40.5883V36.7554C40.5883 36.0826 40.8828 35.704 41.4294 35.704C41.5979 35.704 41.8082 35.7461 41.9764 35.7881L42.2288 34.947C42.0606 34.9048 41.8082 34.9048 41.64 34.9048ZM30.3678 37.0078C30.3678 38.2275 31.2089 39.1107 32.5129 39.1107C33.1017 39.1107 33.5223 38.9847 33.9428 38.6482L33.5223 37.9332C33.1858 38.1855 32.8494 38.3116 32.4708 38.3116C31.7557 38.3116 31.2511 37.8069 31.2511 37.0078C31.2511 36.2508 31.7557 35.7459 32.4708 35.704C32.8494 35.704 33.1858 35.83 33.5223 36.0826L33.9428 35.3675C33.5223 35.0309 33.1017 34.9048 32.5129 34.9048C31.2089 34.9048 30.3678 35.7881 30.3678 37.0078ZM38.5275 37.0078V34.9889H37.6443V35.4936C37.3498 35.1152 36.9292 34.9048 36.3824 34.9048C35.2468 34.9048 34.3636 35.7881 34.3636 37.0078C34.3636 38.2275 35.2468 39.1107 36.3824 39.1107C36.9712 39.1107 37.3919 38.9006 37.6443 38.522V39.0266H38.5275V37.0078ZM35.2888 37.0078C35.2888 36.2927 35.7515 35.704 36.5085 35.704C37.2235 35.704 37.7284 36.2508 37.7284 37.0078C37.7284 37.7228 37.2235 38.3116 36.5085 38.3116C35.7515 38.2694 35.2888 37.7228 35.2888 37.0078ZM24.7318 34.9048C23.5541 34.9048 22.7128 35.7459 22.7128 37.0078C22.7128 38.2696 23.5539 39.1107 24.7738 39.1107C25.3626 39.1107 25.9515 38.9425 26.4142 38.5641L25.9935 37.9332C25.657 38.1855 25.2365 38.3537 24.8159 38.3537C24.2691 38.3537 23.7223 38.1014 23.596 37.3862H26.5824V37.0499C26.6246 35.7459 25.8674 34.9048 24.7316 34.9048H24.7318ZM24.7318 35.6618C25.2784 35.6618 25.6572 35.9984 25.7411 36.6294H23.6382C23.7223 36.0826 24.1009 35.6618 24.7318 35.6618ZM46.6451 37.0078V33.3906H45.7618V35.4936C45.4673 35.1152 45.0468 34.9048 44.5 34.9048C43.3644 34.9048 42.4811 35.7881 42.4811 37.0078C42.4811 38.2275 43.3644 39.1107 44.5 39.1107C45.0889 39.1107 45.5095 38.9006 45.7618 38.522V39.0266H46.6451V37.0078ZM43.4065 37.0078C43.4065 36.2927 43.869 35.704 44.6262 35.704C45.3413 35.704 45.8459 36.2508 45.8459 37.0078C45.8459 37.7228 45.3413 38.3116 44.6262 38.3116C43.869 38.2694 43.4065 37.7228 43.4065 37.0078ZM13.8802 37.0078V34.9889H12.9969V35.4936C12.7024 35.1152 12.2819 34.9048 11.7351 34.9048C10.5995 34.9048 9.71623 35.7881 9.71623 37.0078C9.71623 38.2275 10.5995 39.1107 11.7351 39.1107C12.324 39.1107 12.7446 38.9006 12.9969 38.522V39.0266H13.8802V37.0078ZM10.5995 37.0078C10.5995 36.2927 11.0622 35.704 11.8192 35.704C12.5342 35.704 13.0391 36.2508 13.0391 37.0078C13.0391 37.7228 12.5342 38.3116 11.8192 38.3116C11.0622 38.2694 10.5995 37.7228 10.5995 37.0078Z" fill="white"/>
<path d="M18.7168 15.1417C18.7168 10.3048 20.988 6.01459 24.4789 3.23855C21.9134 1.2197 18.6749 0 15.1419 0C6.77159 0 0 6.77159 0 15.1417C0 23.5115 6.77159 30.2833 15.1417 30.2833C18.6747 30.2833 21.9132 29.0636 24.4789 27.0446C20.988 24.3107 18.7168 19.9785 18.7168 15.1417Z" fill="#EB001B"/>
<path d="M48.9999 15.1417C48.9999 23.5115 42.2283 30.2833 33.8582 30.2833C30.3252 30.2833 27.0867 29.0636 24.521 27.0446C28.054 24.2687 30.2833 19.9785 30.2833 15.1417C30.2833 10.3048 28.0119 6.01459 24.521 3.23855C27.0865 1.2197 30.3252 0 33.8582 0C42.2283 0 49.0001 6.81374 49.0001 15.1417H48.9999Z" fill="#F79E1B"/>
</svg>
