<svg width="27" height="27" viewBox="0 0 27 27" fill="none" xmlns="http://www.w3.org/2000/svg">
<path d="M13.384 20.16C13.776 20.16 14.1075 20.0245 14.3786 19.7534C14.6496 19.4824 14.7847 19.1513 14.784 18.76C14.784 18.368 14.6488 18.0365 14.3786 17.7654C14.1083 17.4944 13.7767 17.3593 13.384 17.36C12.992 17.36 12.6608 17.4955 12.3905 17.7666C12.1203 18.0376 11.9847 18.3688 11.984 18.76C11.984 19.152 12.1195 19.4835 12.3905 19.7546C12.6616 20.0256 12.9927 20.1608 13.384 20.16ZM12.376 15.848H14.448C14.448 15.232 14.5182 14.7467 14.6586 14.392C14.7989 14.0373 15.1954 13.552 15.848 12.936C16.3333 12.4507 16.716 11.9885 16.996 11.5494C17.276 11.1104 17.416 10.5833 17.416 9.96801C17.416 8.92267 17.0333 8.12001 16.268 7.56001C15.5027 7.00001 14.5973 6.72001 13.552 6.72001C12.488 6.72001 11.6248 7.00001 10.9626 7.56001C10.3003 8.12001 9.83807 8.79201 9.57599 9.57601L11.424 10.304C11.5173 9.96801 11.7275 9.60401 12.0546 9.21201C12.3816 8.82001 12.8807 8.62401 13.552 8.62401C14.1493 8.62401 14.5973 8.78753 14.896 9.11456C15.1947 9.44161 15.344 9.80075 15.344 10.192C15.344 10.5653 15.232 10.9155 15.008 11.2426C14.784 11.5696 14.504 11.8728 14.168 12.152C13.3467 12.88 12.8427 13.4307 12.656 13.804C12.4693 14.1773 12.376 14.8587 12.376 15.848ZM13.44 24.64C11.8907 24.64 10.4347 24.3462 9.07199 23.7586C7.70932 23.1709 6.52399 22.3728 5.51599 21.364C4.50799 20.356 3.71018 19.1707 3.12255 17.808C2.53492 16.4453 2.24074 14.9893 2.23999 13.44C2.23999 11.8907 2.53418 10.4347 3.12255 9.07201C3.71092 7.70934 4.50874 6.52401 5.51599 5.51601C6.52399 4.50801 7.70932 3.71019 9.07199 3.12257C10.4347 2.53494 11.8907 2.24075 13.44 2.24001C14.9893 2.24001 16.4453 2.53419 17.808 3.12257C19.1707 3.71094 20.356 4.50875 21.364 5.51601C22.372 6.52401 23.1702 7.70934 23.7585 9.07201C24.3469 10.4347 24.6407 11.8907 24.64 13.44C24.64 14.9893 24.3458 16.4453 23.7574 17.808C23.1691 19.1707 22.3712 20.356 21.364 21.364C20.356 22.372 19.1707 23.1702 17.808 23.7586C16.4453 24.3469 14.9893 24.6408 13.44 24.64ZM13.44 22.4C15.9413 22.4 18.06 21.532 19.796 19.796C21.532 18.06 22.4 15.9413 22.4 13.44C22.4 10.9387 21.532 8.82001 19.796 7.08401C18.06 5.34801 15.9413 4.48001 13.44 4.48001C10.9387 4.48001 8.81999 5.34801 7.08399 7.08401C5.34799 8.82001 4.47999 10.9387 4.47999 13.44C4.47999 15.9413 5.34799 18.06 7.08399 19.796C8.81999 21.532 10.9387 22.4 13.44 22.4Z" fill="#021B41"/>
</svg>
