<svg width="27" height="27" viewBox="0 0 27 27" fill="none" xmlns="http://www.w3.org/2000/svg">
<path opacity="0.16" d="M16.8002 16.8H10.0802C9.11555 16.8001 8.17666 17.1114 7.40304 17.6877C6.62943 18.264 6.06237 19.0744 5.78613 19.9987C6.73143 21.1042 7.90526 21.9915 9.22668 22.5994C10.5481 23.2074 11.9857 23.5214 13.4402 23.52C14.8948 23.5214 16.3323 23.2074 17.6537 22.5994C18.9752 21.9915 20.149 21.1042 21.0943 19.9987C20.8181 19.0744 20.251 18.264 19.4774 17.6877C18.7038 17.1114 17.7649 16.8001 16.8002 16.8Z" fill="#021B41"/>
<path d="M23.5201 13.44C23.5234 15.4412 22.9282 17.3976 21.811 19.0579C20.8896 20.4321 19.6439 21.5581 18.1839 22.3364C16.7239 23.1146 15.0946 23.5211 13.4401 23.52C11.7856 23.5211 10.1564 23.1146 8.69636 22.3364C7.23635 21.5581 5.99059 20.4321 5.06923 19.0579C4.19197 17.7502 3.63328 16.2552 3.43795 14.6927C3.24263 13.1301 3.4161 11.5436 3.94446 10.0602C4.47283 8.57675 5.34138 7.23777 6.4805 6.15054C7.61962 5.06331 8.99762 4.25809 10.504 3.79942C12.0104 3.34075 13.6034 3.24138 15.1551 3.5093C16.7068 3.77722 18.1742 4.40495 19.4396 5.3422C20.705 6.27944 21.7332 7.50011 22.4418 8.90635C23.1505 10.3126 23.5197 11.8653 23.5201 13.44Z" stroke="#021B41" stroke-width="2"/>
<path d="M14.5601 10.08C14.5601 10.377 14.4421 10.6619 14.232 10.872C14.022 11.082 13.7371 11.2 13.4401 11.2V13.44C14.3312 13.44 15.1858 13.086 15.816 12.4559C16.4461 11.8258 16.8001 10.9711 16.8001 10.08H14.5601ZM13.4401 11.2C13.143 11.2 12.8582 11.082 12.6481 10.872C12.4381 10.6619 12.3201 10.377 12.3201 10.08H10.0801C10.0801 10.9711 10.4341 11.8258 11.0642 12.4559C11.6943 13.086 12.549 13.44 13.4401 13.44V11.2ZM12.3201 10.08C12.3201 9.78296 12.4381 9.49808 12.6481 9.28804C12.8582 9.078 13.143 8.96 13.4401 8.96V6.72C12.549 6.72 11.6943 7.074 11.0642 7.70412C10.4341 8.33424 10.0801 9.18887 10.0801 10.08H12.3201ZM13.4401 8.96C13.7371 8.96 14.022 9.078 14.232 9.28804C14.4421 9.49808 14.5601 9.78296 14.5601 10.08H16.8001C16.8001 9.18887 16.4461 8.33424 15.816 7.70412C15.1858 7.074 14.3312 6.72 13.4401 6.72V8.96ZM5.78601 19.9987L4.71193 19.6795L4.53833 20.2653L4.93593 20.7278L5.78601 19.9987ZM21.0942 19.9987L21.9454 20.7278L22.3419 20.2653L22.1682 19.6795L21.0942 19.9987ZM10.0801 17.92H16.8001V15.68H10.0801V17.92ZM10.0801 15.68C8.874 15.68 7.70011 16.0692 6.73294 16.7898C5.76577 17.5104 5.05697 18.5238 4.71193 19.6795L6.85897 20.3179C7.06646 19.6249 7.49194 19.0173 8.07223 18.5853C8.65252 18.1533 9.35666 17.92 10.0801 17.92V15.68ZM13.4401 22.4C12.147 22.4015 10.8691 22.1223 9.69437 21.5819C8.51968 21.0414 7.47625 20.2525 6.63609 19.2696L4.93593 20.7278C5.98636 21.9559 7.2906 22.9416 8.75875 23.617C10.2269 24.2924 11.824 24.6414 13.4401 24.64V22.4ZM16.8001 17.92C18.3199 17.92 19.6068 18.9302 20.0212 20.319L22.1682 19.6795C21.8233 18.524 21.1135 17.5107 20.1466 16.7901C19.1796 16.0696 18.006 15.6802 16.8001 15.68V17.92ZM20.2441 19.2696C19.4039 20.2525 18.3605 21.0414 17.1858 21.5819C16.0111 22.1223 14.7331 22.4015 13.4401 22.4V24.64C15.0561 24.6414 16.6533 24.2924 18.1214 23.617C19.5896 22.9416 20.8949 21.9559 21.9454 20.7278L20.2441 19.2696Z" fill="#021B41"/>
</svg>
