<svg width="14" height="20" viewBox="0 0 14 20" fill="none" xmlns="http://www.w3.org/2000/svg">
<path d="M5.75 15C5.58424 15 5.42527 15.0658 5.30806 15.1831C5.19085 15.3003 5.125 15.4592 5.125 15.625C5.125 15.7908 5.19085 15.9497 5.30806 16.0669C5.42527 16.1842 5.58424 16.25 5.75 16.25H8.25C8.41576 16.25 8.57473 16.1842 8.69194 16.0669C8.80915 15.9497 8.875 15.7908 8.875 15.625C8.875 15.4592 8.80915 15.3003 8.69194 15.1831C8.57473 15.0658 8.41576 15 8.25 15H5.75ZM3.25 0C2.58696 0 1.95107 0.263392 1.48223 0.732233C1.01339 1.20107 0.75 1.83696 0.75 2.5V17.5C0.75 18.163 1.01339 18.7989 1.48223 19.2678C1.95107 19.7366 2.58696 20 3.25 20H10.75C11.413 20 12.0489 19.7366 12.5178 19.2678C12.9866 18.7989 13.25 18.163 13.25 17.5V2.5C13.25 1.83696 12.9866 1.20107 12.5178 0.732233C12.0489 0.263392 11.413 0 10.75 0H3.25ZM2 2.5C2 2.16848 2.1317 1.85054 2.36612 1.61612C2.60054 1.3817 2.91848 1.25 3.25 1.25H10.75C11.0815 1.25 11.3995 1.3817 11.6339 1.61612C11.8683 1.85054 12 2.16848 12 2.5V17.5C12 17.8315 11.8683 18.1495 11.6339 18.3839C11.3995 18.6183 11.0815 18.75 10.75 18.75H3.25C2.91848 18.75 2.60054 18.6183 2.36612 18.3839C2.1317 18.1495 2 17.8315 2 17.5V2.5Z" fill="#021B41"/>
</svg>
