<svg width="27" height="27" viewBox="0 0 27 27" fill="none" xmlns="http://www.w3.org/2000/svg">
<g clip-path="url(#clip0_41_2204)">
<path d="M19.3201 9.40485V8.82C19.3201 6.1866 15.3479 4.2 10.0801 4.2C4.81224 4.2 0.840088 6.1866 0.840088 8.82V13.02C0.840088 15.2135 3.59634 16.9565 7.56009 17.4783V18.06C7.56009 20.6934 11.5322 22.68 16.8001 22.68C22.0679 22.68 26.0401 20.6934 26.0401 18.06V13.86C26.0401 11.6865 23.371 9.9414 19.3201 9.40485ZM24.3601 13.86C24.3601 15.2481 21.1271 16.8 16.8001 16.8C16.4084 16.8 16.0199 16.7864 15.6367 16.7612C17.9015 15.9359 19.3201 14.595 19.3201 13.02V11.1027C22.4564 11.57 24.3601 12.8384 24.3601 13.86ZM7.56009 15.7763V13.2783C8.39566 13.3872 9.23746 13.4412 10.0801 13.44C10.9227 13.4412 11.7645 13.3872 12.6001 13.2783V15.7763C11.7658 15.8995 10.9235 15.9609 10.0801 15.96C9.23671 15.9609 8.39441 15.8995 7.56009 15.7763ZM17.6401 11.5427V13.02C17.6401 13.901 16.337 14.847 14.2801 15.4213V12.9675C15.6356 12.6389 16.7833 12.1496 17.6401 11.5427ZM10.0801 5.88C14.4071 5.88 17.6401 7.4319 17.6401 8.82C17.6401 10.2081 14.4071 11.76 10.0801 11.76C5.75304 11.76 2.52009 10.2081 2.52009 8.82C2.52009 7.4319 5.75304 5.88 10.0801 5.88ZM2.52009 13.02V11.5427C3.37689 12.1496 4.52454 12.6389 5.88009 12.9675V15.4213C3.82314 14.847 2.52009 13.901 2.52009 13.02ZM9.24009 18.06V17.6222C9.51624 17.6327 9.79554 17.64 10.0801 17.64C10.4875 17.64 10.8854 17.6263 11.276 17.6032C11.71 17.7586 12.152 17.8904 12.6001 17.9981V20.4613C10.5431 19.887 9.24009 18.941 9.24009 18.06ZM14.2801 20.8162V18.312C15.1154 18.4243 15.9573 18.4804 16.8001 18.48C17.6427 18.4812 18.4845 18.4272 19.3201 18.3183V20.8162C17.649 21.0612 15.9512 21.0612 14.2801 20.8162ZM21.0001 20.4613V18.0075C22.3556 17.6789 23.5033 17.1895 24.3601 16.5826V18.06C24.3601 18.941 23.057 19.887 21.0001 20.4613Z" fill="#021B41"/>
</g>
<defs>
<clipPath id="clip0_41_2204">
<rect width="26.88" height="26.88" fill="white"/>
</clipPath>
</defs>
</svg>
