<svg width="27" height="27" viewBox="0 0 27 27" fill="none" xmlns="http://www.w3.org/2000/svg">
<path d="M22.68 7.55999H18.9966C19.0376 7.52534 19.0796 7.49174 19.1195 7.45499C19.4384 7.17168 19.6954 6.82561 19.8744 6.43844C20.0535 6.05126 20.1507 5.63131 20.16 5.20484C20.1738 4.7383 20.0921 4.27386 19.9199 3.84004C19.7477 3.40622 19.4887 3.01217 19.1587 2.68208C18.8287 2.35199 18.4347 2.09283 18.001 1.92051C17.5672 1.74819 17.1028 1.66634 16.6362 1.67999C16.2096 1.68918 15.7894 1.78634 15.4021 1.96539C15.0147 2.14444 14.6685 2.40152 14.385 2.72054C13.9928 3.17508 13.674 3.68806 13.44 4.24094C13.2061 3.68806 12.8872 3.17508 12.495 2.72054C12.2116 2.40152 11.8654 2.14444 11.478 1.96539C11.0906 1.78634 10.6705 1.68918 10.2438 1.67999C9.77727 1.66634 9.31286 1.74819 8.87909 1.92051C8.44532 2.09283 8.05134 2.35199 7.72135 2.68208C7.39136 3.01217 7.13232 3.40622 6.96013 3.84004C6.78793 4.27386 6.70623 4.7383 6.72002 5.20484C6.72935 5.63131 6.82658 6.05126 7.00562 6.43844C7.18467 6.82561 7.44168 7.17168 7.76057 7.45499C7.80047 7.48964 7.84247 7.52324 7.88342 7.55999H4.20002C3.75446 7.55999 3.32714 7.73699 3.01208 8.05205C2.69702 8.36712 2.52002 8.79443 2.52002 9.23999V12.6C2.52002 13.0456 2.69702 13.4729 3.01208 13.7879C3.32714 14.103 3.75446 14.28 4.20002 14.28V21C4.20002 21.4456 4.37702 21.8729 4.69208 22.1879C5.00714 22.503 5.43446 22.68 5.88002 22.68H12.18C12.2914 22.68 12.3982 22.6357 12.477 22.557C12.5558 22.4782 12.6 22.3714 12.6 22.26V12.6H4.20002V9.23999H12.6V12.6H14.28V9.23999H22.68V12.6H14.28V22.26C14.28 22.3714 14.3243 22.4782 14.403 22.557C14.4818 22.6357 14.5886 22.68 14.7 22.68H21C21.4456 22.68 21.8729 22.503 22.188 22.1879C22.503 21.8729 22.68 21.4456 22.68 21V14.28C23.1256 14.28 23.5529 14.103 23.868 13.7879C24.183 13.4729 24.36 13.0456 24.36 12.6V9.23999C24.36 8.79443 24.183 8.36712 23.868 8.05205C23.5529 7.73699 23.1256 7.55999 22.68 7.55999ZM8.87357 6.19499C8.7267 6.06199 8.60891 5.90006 8.52759 5.71937C8.44628 5.53868 8.40321 5.34313 8.40107 5.14499C8.39576 4.91284 8.43684 4.68196 8.52189 4.46589C8.60695 4.24981 8.73427 4.05289 8.8964 3.88665C9.05854 3.72041 9.25222 3.5882 9.4661 3.49776C9.67998 3.40733 9.90976 3.36049 10.142 3.35999H10.1934C10.3916 3.36213 10.5871 3.40521 10.7678 3.48652C10.9485 3.56783 11.1104 3.68562 11.2434 3.83249C12.1244 4.82789 12.4352 6.47849 12.5444 7.49909C11.5196 7.39094 9.87002 7.08014 8.87357 6.19499ZM18.0086 6.19499C17.0121 7.07699 15.3584 7.38779 14.3336 7.49699C14.4585 6.39344 14.805 4.77749 15.645 3.83354C15.778 3.68667 15.94 3.56888 16.1206 3.48757C16.3013 3.40626 16.4969 3.36318 16.695 3.36104H16.7465C16.9787 3.3625 17.2083 3.41028 17.4218 3.50161C17.6353 3.59293 17.8285 3.72596 17.9899 3.89288C18.1514 4.05981 18.2779 4.25729 18.3621 4.47373C18.4462 4.69018 18.4863 4.92125 18.48 5.15339C18.4766 5.35018 18.4328 5.54417 18.3513 5.72334C18.2699 5.90251 18.1525 6.06304 18.0065 6.19499H18.0086Z" fill="#021B41"/>
</svg>
