<svg width="27" height="27" viewBox="0 0 27 27" fill="none" xmlns="http://www.w3.org/2000/svg">
<path d="M2.23999 13.4405C2.23999 9.21695 2.23999 7.10463 3.55263 5.79311C4.86415 4.48047 6.97647 4.48047 11.2 4.48047H15.68C19.9035 4.48047 22.0158 4.48047 23.3273 5.79311C24.64 7.10463 24.64 9.21695 24.64 13.4405C24.64 17.664 24.64 19.7763 23.3273 21.0878C22.0158 22.4005 19.9035 22.4005 15.68 22.4005H11.2C6.97647 22.4005 4.86415 22.4005 3.55263 21.0878C2.23999 19.7763 2.23999 17.664 2.23999 13.4405Z" stroke="#021B41" stroke-width="1.5"/>
<path opacity="0.5" d="M11.2 17.9202H6.71999M15.68 17.9202H14M2.23999 11.2002H24.64" stroke="#021B41" stroke-width="1.5" stroke-linecap="round"/>
</svg>
