<svg width="21" height="25" viewBox="0 0 21 25" fill="none" xmlns="http://www.w3.org/2000/svg">
<path d="M20.5201 11.32C20.5201 17.536 16.2193 23.3488 10.4401 24.76C4.66091 23.3488 0.360107 17.536 0.360107 11.32V4.6L10.4401 0.120003L20.5201 4.6V11.32ZM10.4401 22.52C14.6401 21.4 18.2801 16.4048 18.2801 11.5664V6.056L10.4401 2.5616L2.60011 6.056V11.5664C2.60011 16.4048 6.24011 21.4 10.4401 22.52ZM13.5761 11.32V9.64C13.5761 8.072 12.0081 6.84 10.4401 6.84C8.87211 6.84 7.30411 8.072 7.30411 9.64V11.32C6.63211 11.32 5.96011 11.992 5.96011 12.664V16.584C5.96011 17.368 6.63211 18.04 7.30411 18.04H13.4641C14.2481 18.04 14.9201 17.368 14.9201 16.696V12.776C14.9201 11.992 14.2481 11.32 13.5761 11.32ZM12.1201 11.32H8.76011V9.64C8.76011 8.744 9.54411 8.184 10.4401 8.184C11.3361 8.184 12.1201 8.744 12.1201 9.64V11.32Z" fill="#021B41"/>
</svg>
