<svg width="25" height="26" viewBox="0 0 25 26" fill="none" xmlns="http://www.w3.org/2000/svg">
<path d="M12.9202 16.4004C14.8421 16.4004 16.4002 14.8424 16.4002 12.9204C16.4002 10.9985 14.8421 9.44043 12.9202 9.44043C10.9982 9.44043 9.44019 10.9985 9.44019 12.9204C9.44019 14.8424 10.9982 16.4004 12.9202 16.4004Z" stroke="#021B41" stroke-width="1.5"/>
<path opacity="0.5" d="M14.9675 1.49663C14.5418 1.32031 14.0012 1.32031 12.9201 1.32031C11.839 1.32031 11.2984 1.32031 10.8727 1.49663C10.591 1.61323 10.3351 1.78419 10.1195 1.99975C9.90397 2.21531 9.73301 2.47124 9.61641 2.75291C9.50969 3.01159 9.46677 3.31435 9.45053 3.75399C9.4433 4.07182 9.35541 4.3826 9.19511 4.65713C9.03482 4.93167 8.80737 5.16096 8.53413 5.32347C8.25677 5.47896 7.94444 5.56139 7.62647 5.56301C7.30851 5.56464 6.99535 5.4854 6.71641 5.33275C6.32665 5.12627 6.04477 5.01259 5.76521 4.97547C5.15542 4.89528 4.53874 5.06051 4.05073 5.43483C3.68649 5.71671 3.41505 6.18419 2.87449 7.12031C2.33393 8.05643 2.06249 8.52391 2.00333 8.98211C1.96347 9.28424 1.98352 9.59126 2.06234 9.88563C2.14116 10.18 2.2772 10.456 2.46269 10.6978C2.63437 10.9205 2.87449 11.1072 3.24685 11.3416C3.79553 11.6861 4.14817 12.273 4.14817 12.9203C4.14817 13.5676 3.79553 14.1546 3.24685 14.4979C2.87449 14.7334 2.63321 14.9202 2.46269 15.1429C2.2772 15.3847 2.14116 15.6606 2.06234 15.955C1.98352 16.2494 1.96347 16.5564 2.00333 16.8585C2.06365 17.3156 2.33393 17.7842 2.87333 18.7203C3.41505 19.6564 3.68533 20.1239 4.05073 20.4058C4.29252 20.5913 4.56848 20.7273 4.86286 20.8061C5.15723 20.885 5.46425 20.905 5.76637 20.8652C6.04477 20.828 6.32665 20.7144 6.71641 20.5079C6.99535 20.3552 7.30851 20.276 7.62647 20.2776C7.94444 20.2792 8.25677 20.3617 8.53413 20.5172C9.09441 20.842 9.42733 21.4394 9.45053 22.0866C9.46677 22.5274 9.50853 22.829 9.61641 23.0877C9.73301 23.3694 9.90397 23.6253 10.1195 23.8409C10.3351 24.0564 10.591 24.2274 10.8727 24.344C11.2984 24.5203 11.839 24.5203 12.9201 24.5203C14.0012 24.5203 14.5418 24.5203 14.9675 24.344C15.2492 24.2274 15.5051 24.0564 15.7207 23.8409C15.9362 23.6253 16.1072 23.3694 16.2238 23.0877C16.3305 22.829 16.3734 22.5274 16.3897 22.0866C16.4129 21.4394 16.7458 20.8408 17.3061 20.5172C17.5834 20.3617 17.8957 20.2792 18.2137 20.2776C18.5317 20.276 18.8448 20.3552 19.1238 20.5079C19.5135 20.7144 19.7954 20.828 20.0738 20.8652C20.3759 20.905 20.683 20.885 20.9773 20.8061C21.2717 20.7273 21.5477 20.5913 21.7895 20.4058C22.1549 20.1251 22.4251 19.6564 22.9657 18.7203C23.5063 17.7842 23.7777 17.3167 23.8369 16.8585C23.8767 16.5564 23.8567 16.2494 23.7778 15.955C23.699 15.6606 23.563 15.3847 23.3775 15.1429C23.2058 14.9202 22.9657 14.7334 22.5933 14.4991C22.3216 14.3339 22.0963 14.1024 21.9386 13.8262C21.781 13.55 21.6961 13.2383 21.692 12.9203C21.692 12.273 22.0447 11.6861 22.5933 11.3427C22.9657 11.1072 23.207 10.9205 23.3775 10.6978C23.563 10.456 23.699 10.18 23.7778 9.88563C23.8567 9.59126 23.8767 9.28424 23.8369 8.98211C23.7765 8.52507 23.5063 8.05643 22.9669 7.12031C22.4251 6.18419 22.1549 5.71671 21.7895 5.43483C21.5477 5.24934 21.2717 5.1133 20.9773 5.03448C20.683 4.95566 20.3759 4.93561 20.0738 4.97547C19.7954 5.01259 19.5135 5.12627 19.1226 5.33275C18.8438 5.48519 18.5309 5.56432 18.2131 5.56269C17.8954 5.56107 17.5833 5.47876 17.3061 5.32347C17.0328 5.16096 16.8054 4.93167 16.6451 4.65713C16.4848 4.3826 16.3969 4.07182 16.3897 3.75399C16.3734 3.31319 16.3317 3.01159 16.2238 2.75291C16.1072 2.47124 15.9362 2.21531 15.7207 1.99975C15.5051 1.78419 15.2492 1.61323 14.9675 1.49663Z" stroke="#021B41" stroke-width="2"/>
</svg>
