<svg width="27" height="27" viewBox="0 0 27 27" fill="none" xmlns="http://www.w3.org/2000/svg">
<path d="M8.3999 15.12H15.1199V16.8H8.3999V15.12ZM8.3999 10.92H18.4799V12.6H8.3999V10.92ZM8.3999 19.32H12.5999V21H8.3999V19.32Z" fill="#021B41"/>
<path d="M21 4.19969H18.48V3.35969C18.48 2.91412 18.303 2.48681 17.9879 2.17175C17.6728 1.85669 17.2455 1.67969 16.8 1.67969H10.08C9.63439 1.67969 9.20707 1.85669 8.89201 2.17175C8.57695 2.48681 8.39995 2.91412 8.39995 3.35969V4.19969H5.87995C5.43439 4.19969 5.00707 4.37669 4.69201 4.69175C4.37695 5.00681 4.19995 5.43412 4.19995 5.87969V23.5197C4.19995 23.9653 4.37695 24.3926 4.69201 24.7076C5.00707 25.0227 5.43439 25.1997 5.87995 25.1997H21C21.4455 25.1997 21.8728 25.0227 22.1879 24.7076C22.503 24.3926 22.68 23.9653 22.68 23.5197V5.87969C22.68 5.43412 22.503 5.00681 22.1879 4.69175C21.8728 4.37669 21.4455 4.19969 21 4.19969ZM10.08 3.35969H16.8V6.71969H10.08V3.35969ZM21 23.5197H5.87995V5.87969H8.39995V8.39969H18.48V5.87969H21V23.5197Z" fill="#021B41"/>
</svg>
