<svg width="11" height="11" viewBox="0 0 11 11" fill="none" xmlns="http://www.w3.org/2000/svg">
<mask id="mask0_41_950" style="mask-type:luminance" maskUnits="userSpaceOnUse" x="0" y="0" width="11" height="11">
<path d="M3.97249 6.32659L3.89749 6.32034C2.94249 6.23284 2.46499 6.18972 2.31312 5.86284C2.16187 5.53659 2.43687 5.14409 2.98624 4.35846L5.22562 1.15909C5.58874 0.64034 5.77062 0.380965 5.92749 0.435965C6.08374 0.49159 6.06249 0.807215 6.02124 1.43909L5.89374 3.34472C5.85499 3.91971 5.83624 4.20721 6.00124 4.40096C6.16687 4.59471 6.45374 4.62034 7.02749 4.67284L7.10249 4.67909C8.05749 4.76659 8.53499 4.80971 8.68687 5.13659C8.83812 5.46284 8.56312 5.85534 8.01312 6.64096L5.77437 9.84034C5.41124 10.3591 5.22937 10.6185 5.07249 10.5635C4.91624 10.5078 4.93749 10.1922 4.97874 9.56034L5.10624 7.65472C5.14499 7.07971 5.16374 6.79222 4.99874 6.59846C4.83312 6.40472 4.54624 6.37909 3.97249 6.32659Z" fill="white"/>
<path d="M9.5625 0.5L8.625 1.75H9.875L8.9375 3M2.0625 8L1.125 9.25H2.375L1.4375 10.5" stroke="#C0C0C0" stroke-opacity="0.7" stroke-linecap="round" stroke-linejoin="round"/>
</mask>
<g mask="url(#mask0_41_950)">
<path d="M-2 -2H13V13H-2V-2Z" fill="#021B41"/>
</g>
</svg>
