<svg width="25" height="25" viewBox="0 0 25 25" fill="none" xmlns="http://www.w3.org/2000/svg">
<path d="M24.1428 17.286C24.1428 20.518 24.1428 22.1351 23.1382 23.1386C22.1348 24.1431 20.5176 24.1431 17.2856 24.1431H8.14279C4.91079 24.1431 3.29364 24.1431 2.29022 23.1386C1.28564 22.1351 1.28564 20.518 1.28564 17.286V12.7146C1.28564 9.48256 1.28564 7.86542 2.29022 6.86199C3.29364 5.85742 4.91079 5.85742 8.14279 5.85742H17.2856C20.5176 5.85742 22.1348 5.85742 23.1382 6.86199C24.1428 7.86542 24.1428 9.48256 24.1428 12.7146V17.286Z" stroke="#021B41" stroke-width="1.5"/>
<path opacity="0.5" d="M9.28564 1.28613L12.7142 5.28613L16.1428 1.28613" stroke="#021B41" stroke-width="1.5" stroke-linecap="round"/>
<path d="M17.2856 5.85742V24.1431" stroke="#021B41" stroke-width="1.5" stroke-linecap="round"/>
<path opacity="0.5" d="M21.857 17.2866C21.857 16.9834 21.7366 16.6928 21.5223 16.4784C21.3079 16.2641 21.0173 16.1437 20.7141 16.1437C20.411 16.1437 20.1204 16.2641 19.906 16.4784C19.6917 16.6928 19.5713 16.9834 19.5713 17.2866C19.5713 17.5897 19.6917 17.8803 19.906 18.0947C20.1204 18.309 20.411 18.4294 20.7141 18.4294C21.0173 18.4294 21.3079 18.309 21.5223 18.0947C21.7366 17.8803 21.857 17.5897 21.857 17.2866ZM21.857 12.7151C21.857 12.412 21.7366 12.1213 21.5223 11.907C21.3079 11.6927 21.0173 11.5723 20.7141 11.5723C20.411 11.5723 20.1204 11.6927 19.906 11.907C19.6917 12.1213 19.5713 12.412 19.5713 12.7151C19.5713 13.0182 19.6917 13.3089 19.906 13.5232C20.1204 13.7376 20.411 13.858 20.7141 13.858C21.0173 13.858 21.3079 13.7376 21.5223 13.5232C21.7366 13.3089 21.857 13.0182 21.857 12.7151Z" fill="#021B41"/>
</svg>
