<svg width="41" height="41" viewBox="0 0 41 41" fill="none" xmlns="http://www.w3.org/2000/svg">
<path d="M20.4999 0.0834961C31.776 0.0834961 40.9166 9.22404 40.9166 20.5002C40.9166 31.7763 31.776 40.9168 20.4999 40.9168C9.22379 40.9168 0.083252 31.7763 0.083252 20.5002C0.083252 9.22404 9.22379 0.0834961 20.4999 0.0834961ZM20.4999 26.6252C19.9584 26.6252 19.4391 26.8403 19.0562 27.2232C18.6734 27.606 18.4583 28.1253 18.4583 28.6668C18.4583 29.2083 18.6734 29.7276 19.0562 30.1105C19.4391 30.4934 19.9584 30.7085 20.4999 30.7085C21.0414 30.7085 21.5607 30.4934 21.9436 30.1105C22.3265 29.7276 22.5416 29.2083 22.5416 28.6668C22.5416 28.1253 22.3265 27.606 21.9436 27.2232C21.5607 26.8403 21.0414 26.6252 20.4999 26.6252ZM20.4999 8.25016C19.9998 8.25023 19.5172 8.43382 19.1435 8.76612C18.7698 9.09842 18.531 9.55632 18.4725 10.053L18.4583 10.2918V22.5418C18.4588 23.0622 18.6581 23.5627 19.0153 23.9411C19.3725 24.3195 19.8608 24.5472 20.3803 24.5777C20.8997 24.6082 21.4113 24.4392 21.8103 24.1052C22.2094 23.7712 22.4658 23.2974 22.5273 22.7807L22.5416 22.5418V10.2918C22.5416 9.75035 22.3265 9.23104 21.9436 8.84815C21.5607 8.46527 21.0414 8.25016 20.4999 8.25016Z" fill="#FF8A00"/>
</svg>
