<svg width="29" height="28" viewBox="0 0 29 28" fill="none" xmlns="http://www.w3.org/2000/svg">
<path d="M18.522 16.639C17.3943 15.6366 15.938 15.0829 14.4292 15.0829C12.9204 15.0829 11.464 15.6366 10.3363 16.639M21.7926 13.3685C19.7953 11.5009 17.163 10.4619 14.4286 10.4619C11.6942 10.4619 9.06196 11.5009 7.0647 13.3685" stroke="#021B41" stroke-width="1.9375" stroke-linecap="round" stroke-linejoin="round"/>
<path d="M24.6994 9.75621C21.8726 7.23447 18.2168 5.84082 14.4287 5.84082C10.6405 5.84082 6.98477 7.23447 4.15796 9.75621" stroke="#021B41" stroke-width="1.9375" stroke-linecap="round" stroke-linejoin="round"/>
<path d="M14.4286 22.286C14.0896 22.286 13.7581 22.1855 13.4762 21.9971C13.1943 21.8087 12.9746 21.541 12.8448 21.2277C12.7151 20.9145 12.6811 20.5698 12.7473 20.2373C12.8134 19.9047 12.9767 19.5993 13.2165 19.3595C13.4562 19.1198 13.7617 18.9565 14.0942 18.8904C14.4267 18.8242 14.7714 18.8582 15.0847 18.9879C15.3979 19.1177 15.6657 19.3374 15.854 19.6193C16.0424 19.9012 16.1429 20.2327 16.1429 20.5717C16.1429 21.0264 15.9623 21.4624 15.6408 21.7839C15.3193 22.1054 14.8833 22.286 14.4286 22.286Z" fill="#021B41"/>
</svg>
